<svg width="21" height="19" viewBox="0 0 21 19" fill="none" xmlns="http://www.w3.org/2000/svg">
<path d="M19.5182 3.05405H15.0667V1.6967C15.0655 0.760034 14.2997 0.00115985 13.3545 0H7.19091C6.24573 0.00115985 5.47996 0.760034 5.47879 1.6967V3.05405H1.02727C0.459965 3.05405 0 3.50988 0 4.07207V11.6257C0.00217359 12.0562 0.275879 12.4391 0.684848 12.5837V17.3063C0.684848 17.8685 1.14481 18.3243 1.71212 18.3243H18.8333C19.4006 18.3243 19.8606 17.8685 19.8606 17.3063V12.5841C20.2696 12.4392 20.5434 12.0562 20.5455 11.6257V4.07207C20.5455 3.50988 20.0855 3.05405 19.5182 3.05405ZM6.16364 1.6967C6.16364 1.1345 6.6236 0.678679 7.19091 0.678679H13.3545C13.9219 0.678679 14.3818 1.1345 14.3818 1.6967V3.05405H13.697V1.6967C13.697 1.5093 13.5436 1.35736 13.3545 1.35736H7.19091C7.00181 1.35736 6.84848 1.5093 6.84848 1.6967V3.05405H6.16364V1.6967ZM13.0121 3.05405H7.53333V2.03604H13.0121V3.05405ZM19.1758 17.3063C19.1758 17.4937 19.0224 17.6456 18.8333 17.6456H1.71212C1.52302 17.6456 1.3697 17.4937 1.3697 17.3063V12.7004L8.90303 13.73V14.5916C8.90303 15.1538 9.363 15.6096 9.9303 15.6096H10.6152C11.1825 15.6096 11.6424 15.1538 11.6424 14.5916V13.73L19.1758 12.7004V17.3063ZM10.9576 14.5916C10.9576 14.779 10.8043 14.9309 10.6152 14.9309H9.9303C9.7412 14.9309 9.58788 14.779 9.58788 14.5916V12.5556C9.58788 12.3682 9.7412 12.2162 9.9303 12.2162H10.6152C10.8043 12.2162 10.9576 12.3682 10.9576 12.5556V14.5916ZM19.8606 11.6257C19.8608 11.7949 19.7352 11.9383 19.5662 11.962L19.4712 11.975L11.6424 13.0448V12.5556C11.6424 11.9934 11.1825 11.5375 10.6152 11.5375H9.9303C9.363 11.5375 8.90303 11.9934 8.90303 12.5556V13.0448L0.979621 11.962C0.810582 11.9385 0.684681 11.795 0.684848 11.6257V4.07207C0.684848 3.88467 0.83817 3.73273 1.02727 3.73273H19.5182C19.7073 3.73273 19.8606 3.88467 19.8606 4.07207V11.6257Z" fill="white"/>
</svg>
