<svg width="10" height="13" viewBox="0 0 10 13" fill="none" xmlns="http://www.w3.org/2000/svg">
<path fill-rule="evenodd" clip-rule="evenodd" d="M8.91826 2.87949C8.34437 1.88474 7.39882 1.15873 6.28962 0.861143C5.18042 0.563553 3.99844 0.718779 3.00369 1.29267C2.00894 1.86657 1.28291 2.81212 0.985319 3.92132C0.687729 5.03052 0.842955 6.21249 1.41685 7.20724L4.15775 11.9265C4.32262 12.3181 4.85843 12.9982 5.16756 12.9982C5.47668 12.9982 5.99189 12.3181 6.15675 11.9265L8.89766 7.20724C9.28063 6.55115 9.48416 5.80581 9.48778 5.04613C9.49139 4.28645 9.29498 3.5392 8.91826 2.87949ZM5.16756 7.00115C4.78355 7.00113 4.40821 6.88698 4.08921 6.6732C3.77021 6.45941 3.52195 6.15563 3.37595 5.80045C3.22996 5.44528 3.19282 5.05473 3.26925 4.67841C3.34568 4.30208 3.53224 3.95697 3.80522 3.68689C4.07821 3.41681 4.4253 3.23396 4.80242 3.16156C5.17955 3.08915 5.56968 3.13045 5.92327 3.28023C6.27687 3.43002 6.57797 3.68153 6.78833 4.00279C6.99869 4.32406 7.10882 4.7006 7.10474 5.08459C7.10474 5.59836 6.90064 6.09108 6.53735 6.45437C6.17406 6.81766 5.68133 7.02178 5.16756 7.02178V7.00115Z" fill="white"/>
</svg>
