<svg width="13" height="14" viewBox="0 0 13 14" fill="none" xmlns="http://www.w3.org/2000/svg">
<path d="M11.6075 9.82804C10.8656 9.18919 8.02167 8.42669 7.95985 7.91149C7.85465 7.60425 7.85465 7.27073 7.95985 6.96349C8.35535 6.46604 8.59868 5.8649 8.66053 5.2324C8.66053 5.2324 9.23756 5.41788 9.11391 3.99591C8.94905 3.83104 8.84601 3.85165 8.84601 3.85165C8.84601 3.85165 8.84601 2.16177 8.84601 1.9969C8.71355 1.70764 8.51952 1.4508 8.27746 1.24434C8.03541 1.03788 7.75117 0.886785 7.44464 0.801617C7.26668 0.780239 7.08679 0.780239 6.90883 0.801617H5.38381C4.96883 0.789574 4.55989 0.903145 4.21055 1.12746C3.86121 1.35177 3.58776 1.67637 3.42602 2.05872C3.42602 2.22359 3.42602 3.91347 3.42602 3.91347C3.42602 3.91347 3.42603 3.91347 3.17873 4.05773C3.05508 5.4797 3.63211 5.29422 3.63211 5.29422C3.69396 5.92672 3.93729 6.52786 4.33279 7.02531C4.43799 7.33255 4.43799 7.66607 4.33279 7.97331C4.33279 8.48852 1.42702 9.25101 0.685121 9.88986C-0.056778 10.5287 0.0874821 13.1254 0.0874821 13.1254H12.1639C12.1639 13.1254 12.3494 10.4669 11.6075 9.82804Z" fill="white"/>
</svg>
