<svg width="9" height="12" viewBox="0 0 9 12" fill="none" xmlns="http://www.w3.org/2000/svg">
<path d="M7.62786 0.178253H0.682866C0.527961 0.183598 0.381193 0.248913 0.273532 0.360418C0.165872 0.471924 0.105744 0.620914 0.105836 0.775911V11.0801C0.103083 11.1586 0.115826 11.2368 0.143343 11.3104C0.17086 11.3839 0.21261 11.4514 0.266202 11.5088C0.319793 11.5662 0.384175 11.6125 0.45567 11.645C0.527165 11.6775 0.604368 11.6957 0.682866 11.6983H7.62786C7.70811 11.6984 7.78754 11.6822 7.86143 11.6509C7.93531 11.6196 8.00214 11.5737 8.05791 11.516C8.11369 11.4583 8.15727 11.39 8.18606 11.3151C8.21486 11.2402 8.22827 11.1603 8.2255 11.0801V0.775911C8.2255 0.617407 8.16254 0.465391 8.05046 0.353312C7.93838 0.241232 7.78637 0.178253 7.62786 0.178253ZM4.16567 11.3479C4.0222 11.352 3.88078 11.3133 3.75948 11.2365C3.63819 11.1598 3.54254 11.0486 3.48477 10.9173C3.42701 10.7859 3.40975 10.6402 3.43521 10.499C3.46067 10.3578 3.52769 10.2273 3.62769 10.1244C3.7277 10.0214 3.85614 9.95067 3.99659 9.92112C4.13704 9.89158 4.28311 9.90461 4.41611 9.95854C4.54912 10.0125 4.66301 10.1049 4.74321 10.2239C4.82342 10.3429 4.86629 10.4831 4.86635 10.6267C4.86911 10.7204 4.85302 10.8137 4.81905 10.9011C4.78507 10.9885 4.7339 11.0682 4.66856 11.1355C4.60322 11.2028 4.52504 11.2562 4.43866 11.2927C4.35227 11.3292 4.25944 11.348 4.16567 11.3479ZM7.62786 9.28711C7.63064 9.35107 7.62044 9.41494 7.59787 9.47484C7.5753 9.53475 7.54083 9.58947 7.49654 9.63569C7.45224 9.68191 7.39904 9.71867 7.34015 9.74377C7.28126 9.76887 7.21789 9.78178 7.15387 9.78172H1.17747C1.11345 9.78178 1.05008 9.76887 0.991187 9.74377C0.932294 9.71867 0.879098 9.68191 0.834804 9.63569C0.790509 9.58947 0.756037 9.53475 0.733466 9.47484C0.710895 9.41494 0.700691 9.35107 0.703475 9.28711V1.31172C0.700691 1.24776 0.710895 1.18389 0.733466 1.12398C0.756037 1.06408 0.790509 1.00939 0.834804 0.963171C0.879098 0.91695 0.932294 0.880159 0.991187 0.85506C1.05008 0.829962 1.11345 0.817076 1.17747 0.817137H7.15387C7.21789 0.817076 7.28126 0.829962 7.34015 0.85506C7.39904 0.880159 7.45224 0.91695 7.49654 0.963171C7.54083 1.00939 7.5753 1.06408 7.59787 1.12398C7.62044 1.18389 7.63064 1.24776 7.62786 1.31172V9.28711Z" fill="white"/>
<path d="M7.15374 1.00256H1.17733C1.10628 1.00256 1.03814 1.03078 0.987893 1.08102C0.93765 1.13126 0.909424 1.1994 0.909424 1.27045V9.24588C0.909424 9.31693 0.93765 9.38507 0.987893 9.43531C1.03814 9.48555 1.10628 9.51377 1.17733 9.51377H7.15374C7.22479 9.51377 7.29293 9.48555 7.34317 9.43531C7.39342 9.38507 7.42164 9.31693 7.42164 9.24588V1.27045C7.42164 1.1994 7.39342 1.13126 7.34317 1.08102C7.29293 1.03078 7.22479 1.00256 7.15374 1.00256Z" fill="white"/>
</svg>
