<svg width="19" height="24" viewBox="0 0 19 24" fill="none" xmlns="http://www.w3.org/2000/svg">
<path d="M17.4866 4.35914L5.65749 20.0008L1 22.1853L1.86558 17.1157L13.6947 1.49462C13.8915 1.23227 14.1844 1.05881 14.509 1.01244C14.8337 0.966058 15.1635 1.05051 15.4258 1.24727L17.2599 2.62806C17.5191 2.82787 17.6885 3.12229 17.731 3.44678C17.7735 3.77126 17.6856 4.09933 17.4866 4.35914V4.35914Z" stroke="white" stroke-miterlimit="10"/>
<path d="M17.4857 4.35914L16.5378 5.61628L12.7458 2.7517L13.6938 1.49462C13.8906 1.23227 14.1835 1.05881 14.5081 1.01244C14.8328 0.966058 15.1626 1.05051 15.4249 1.24727L17.259 2.62806C17.5182 2.82787 17.6876 3.12229 17.7301 3.44678C17.7726 3.77126 17.6847 4.09933 17.4857 4.35914Z" fill="white" stroke="white" stroke-miterlimit="10"/>
<path d="M1.86499 17.1151L5.55383 20.0826" stroke="white" stroke-miterlimit="10"/>
<path d="M3.51367 18.0633L14.2506 3.88489" stroke="white" stroke-miterlimit="10"/>
</svg>
